<svg width="103" height="77" viewBox="0 0 103 77" fill="none" xmlns="http://www.w3.org/2000/svg">
<path d="M2 2H18.6504C19.4968 2 20.2516 2.53286 20.535 3.33047L24.7538 15.2057M24.7538 15.2057L40.0873 58.3664C40.4362 59.3486 41.4808 59.8981 42.4878 59.6292L98.5686 44.6546C99.4438 44.4209 100.053 43.6282 100.053 42.7223V17.2057C100.053 16.1012 99.1572 15.2057 98.0526 15.2057H24.7538Z" stroke="#186FD4" stroke-width="4" stroke-linecap="round" stroke-linejoin="round"/>
<path d="M54.7546 41.899L54.7555 41.898C56.2049 40.2882 58.1708 39.3838 60.2206 39.3838C62.2703 39.3838 64.2362 40.2882 65.6856 41.898L65.6864 41.899M48.0273 31C49.0308 32.0732 50.3923 32.6768 51.8114 32.6768C53.2305 32.6768 54.5915 32.0738 55.5951 31.0006M64.8455 31C65.849 32.0732 67.2105 32.6768 68.6297 32.6768C70.0487 32.6768 71.4097 32.0738 72.4132 31.0006" stroke="#186FD4" stroke-width="4" stroke-linecap="round" stroke-linejoin="round"/>
<path d="M25.7201 71C25.7201 73.9455 28.1079 76.3333 31.0535 76.3333C33.999 76.3333 36.3868 73.9455 36.3868 71C36.3868 68.0545 33.999 65.6667 31.0535 65.6667C28.1079 65.6667 25.7201 68.0545 25.7201 71ZM27.4219 72H31.0535V70H27.4219V72Z" fill="#186FD4"/>
<path d="M68.9311 71C68.9311 73.9455 71.3189 76.3333 74.2644 76.3333C77.2099 76.3333 79.5977 73.9455 79.5977 71C79.5977 68.0545 77.2099 65.6667 74.2644 65.6667C71.3189 65.6667 68.9311 68.0545 68.9311 71ZM70.6328 72H74.2644V70H70.6328V72Z" fill="#186FD4"/>
</svg>
