<svg xmlns="http://www.w3.org/2000/svg" width="76" height="14" fill="none" viewBox="0 0 76 14"><path fill="#000" fill-rule="evenodd" d="M22.34 10.377a3.35 3.35 0 0 1-1.884-.568 3.3 3.3 0 0 1-1.248-1.53 3.36 3.36 0 0 1-.197-1.965 3.56 3.56 0 0 1 .92-1.748 3.355 3.355 0 0 1 3.701-.743c.619.263 1.15.694 1.533 1.245a3.406 3.406 0 0 1-.416 4.282 3.28 3.28 0 0 1-2.409 1.027M22.34 0a7.003 7.003 0 0 0-5.917 3.217 7 7 0 0 0-1.092 3.293 6.8 6.8 0 0 0 .636 3.408 7 7 0 0 0 3.74 3.534 7.03 7.03 0 0 0 5.152.027 6.84 6.84 0 0 0 2.825-2.031 5.34 5.34 0 0 1-1.905 2.031v.372h3.548V6.947a6.97 6.97 0 0 0-2.056-4.912A7 7 0 0 0 22.341 0m33.598 10.443h-4.6V8.17h4.512c.57 0 1.227.524 1.227 1.136 0 .437-.35 1.136-1.14 1.136m-4.622-6.904h3.877c.416 0 1.117.437 1.117 1.114 0 .546-.438 1.136-1.227 1.136h-3.745zm7.776 3.037c.832-1.267.92-3.015.153-4.326A4.13 4.13 0 0 0 57.668.7a4.57 4.57 0 0 0-2.124-.59H47.79v13.763h8.673c2.716 0 4.227-2.25 4.227-4.13 0-1.79-1.029-2.708-1.598-3.167M44.286 5.178c1.16 3.124 1.226 5.986 1.226 8.695H41.92c0-2.207-.087-4.217-.547-6.03-.613-2.425-1.774-4.195-2.847-4.195-1.074 0-2.234 1.77-2.848 4.195-.46 1.813-.547 3.757-.547 6.03h-3.592c0-2.469.066-5.55 1.226-8.695C33.861 2.272 35.875 0 38.525 0s4.666 2.272 5.76 5.178M13.952.109v1.442a7.1 7.1 0 0 1-.68 3.015 6.86 6.86 0 0 1-1.905 2.425 6.86 6.86 0 0 1 1.906 2.425c.443.943.675 1.972.679 3.015v1.442H10.36v-1.814a3.36 3.36 0 0 0-.988-2.379 3.37 3.37 0 0 0-3.676-.73 3.37 3.37 0 0 0-1.825 1.822c-.17.408-.257.845-.257 1.287v1.813H0v-1.441a7.1 7.1 0 0 1 .679-3.015A6.86 6.86 0 0 1 2.584 6.99 6.86 6.86 0 0 1 .68 4.566 7.1 7.1 0 0 1 0 1.55V.11h3.592v1.814A3.36 3.36 0 0 0 4.58 4.3a3.37 3.37 0 0 0 3.676.73A3.37 3.37 0 0 0 10.08 3.21c.17-.408.257-.846.257-1.287V.109zm55.061 10.268a3.35 3.35 0 0 1-1.883-.568 3.3 3.3 0 0 1-1.249-1.53 3.36 3.36 0 0 1-.197-1.965 3.56 3.56 0 0 1 .92-1.748 3.355 3.355 0 0 1 3.701-.743c.619.263 1.15.694 1.533 1.245a3.406 3.406 0 0 1-.416 4.282 3.28 3.28 0 0 1-2.409 1.027M76 6.947a6.87 6.87 0 0 0-1.665-4.478A7 7 0 0 0 67.754.127a7 7 0 0 0-3.27 1.541 7 7 0 0 0-2.063 2.964 7.04 7.04 0 0 0 .022 4.784 6.94 6.94 0 0 0 3.088 3.648 7.004 7.004 0 0 0 8.848-1.55 5.34 5.34 0 0 1-1.905 2.03v.372H76z" clip-rule="evenodd"/></svg>