<svg xmlns="http://www.w3.org/2000/svg" width="215" height="54" fill="none" viewBox="0 0 215 54"><g fill-rule="evenodd" clip-path="url(#a)" clip-rule="evenodd"><path fill="#2b2c86" d="M27.623 10.474c4.684 0 8.925 1.861 11.987 4.872l-6.237 6.06-5.136-5.138-12.048 10.88 3.684-.008.066 9.246 5.662.079v-3.789c0-.834.842-.655 2.631-.633h.027c1.79-.027 2.631-.201 2.631.633v3.789l5.553-.079 2.618 2.788a17.06 17.06 0 0 1-11.43 4.352c-9.337 0-16.907-7.398-16.907-16.526s7.561-16.526 16.899-16.526m-7.785 11.278 2.995-2.464.035-1.333h-3.035v3.797z"/><path fill="#e52b0e" d="M27.623 0c7.653 0 14.579 3.041 19.583 7.957l-3.715 3.614c-4.052-3.985-9.666-6.45-15.868-6.45C15.259 5.121 5.237 14.918 5.237 27s10.022 21.879 22.386 21.879c5.838 0 11.149-2.185 15.136-5.76l3.544 3.772C41.386 51.304 34.829 54 27.627 54 12.368 54 0 41.914 0 27S12.368 0 27.623 0M57.211 30.553q-3.518 0-5.991-2.417-2.474-2.417-2.474-5.93c0-2.342.825-4.321 2.474-5.95 1.649-1.626 3.645-2.444 5.991-2.444q.664-.001 1.237.07a6 6 0 0 1 1.14.258l.307-.441 2.64 1.512-1.784 3.395c-1.158-1.04-2.338-1.556-3.544-1.556-1.334 0-2.456.498-3.378 1.486q-1.379 1.486-1.377 3.675c0 1.46.46 2.635 1.377 3.627.922.992 2.044 1.485 3.378 1.485q2.117.002 3.425-1.485l1.404 3.277q-2.093 1.442-4.83 1.442zm8.965-.442V17.514h-3.28l1.118-3.23h6.35l.404-.72h3.21l-1.451 3.95H69.67V30.11zm9.083 0h3.496v-4.789h2.022q2.138 0 3.614-1.695 1.474-1.698 1.474-4.117 0-2.163-1.544-3.696-1.547-1.534-3.614-1.534h-5.781l-1.189 3.23h1.522V30.11m3.496-12.597h1.07c.667 0 1.22.222 1.667.672q.665.675.666 1.652c0 .651-.228 1.171-.688 1.604a2.34 2.34 0 0 1-1.667.65h-1.048zm16.649 13.039q-3.518 0-5.991-2.417-2.475-2.417-2.474-5.93c0-2.342.825-4.286 2.474-5.93q2.473-2.463 5.991-2.464 3.519-.001 5.991 2.443c1.649 1.63 2.474 3.61 2.474 5.951 0 2.343-.825 4.278-2.474 5.904-1.649 1.625-3.644 2.442-5.991 2.442m0-13.507q-1.975-.001-3.364 1.499t-1.39 3.661c0 1.442.46 2.635 1.381 3.627s2.044 1.486 3.377 1.486c1.334 0 2.457-.494 3.378-1.486q1.38-1.489 1.381-3.626c0-1.425-.465-2.662-1.39-3.662q-1.39-1.5-3.364-1.499zm18.741-2.766h3.496v15.831h-3.496v-8.647l-4.662 8.647h-3.496V17.514h-1.522l1.189-3.23h3.829v8.858l4.662-8.858zm-6.324-2.718 1.285-1.302c.333.389.732.677 1.201.874q.704.288 1.439.288 1.593-.001 2.614-1.162l1.377 1.35-.096.162c-1.092 1.162-2.395 1.743-3.899 1.743q-1.167.001-2.163-.476c-.666-.319-1.254-.808-1.758-1.477m20.311 18.99q-3.518.002-5.991-2.416-2.474-2.417-2.474-5.93c0-2.342.825-4.286 2.474-5.93q2.473-2.463 5.991-2.464 3.519-.001 5.991 2.443 2.474 2.44 2.474 5.951c0 2.343-.825 4.278-2.474 5.904-1.649 1.625-3.644 2.442-5.991 2.442m0-13.506q-1.975-.001-3.364 1.499t-1.39 3.661c0 1.442.46 2.635 1.381 3.627s2.044 1.486 3.377 1.486c1.334 0 2.457-.494 3.378-1.486s1.377-2.202 1.377-3.626c0-1.425-.465-2.662-1.391-3.662q-1.389-1.5-3.364-1.499zm10.25-2.766h11.605v15.831h-3.495V17.514h-4.281V30.11h-3.496V17.514h-1.522l1.189-3.23zm16.316 15.831V17.514h-3.281l1.119-3.23h6.35l.404-.72h3.21l-1.451 3.95h-2.856V30.11zm10.846 0h3.496V17.514h2.855l1.452-3.95h-3.211l-.403.72h-6.351l-1.118 3.23h3.28zm16.623.441q-3.518.002-5.991-2.416-2.474-2.417-2.474-5.93c0-2.342.825-4.286 2.474-5.93q2.473-2.463 5.991-2.464 3.519-.001 5.991 2.443c1.649 1.63 2.474 3.61 2.474 5.951 0 2.343-.825 4.278-2.474 5.904-1.649 1.625-3.644 2.442-5.991 2.442m0-13.506q-1.975-.001-3.364 1.499t-1.39 3.661c0 1.442.46 2.635 1.377 3.627.921.992 2.044 1.486 3.377 1.486s2.456-.494 3.377-1.486q1.38-1.489 1.378-3.626c0-1.425-.465-2.662-1.391-3.662q-1.389-1.5-3.364-1.499m10.583 13.065V17.514h-1.521l1.188-3.23h5.781q2.067 0 3.614 1.534 1.545 1.534 1.544 3.697 0 2.418-1.474 4.116-1.475 1.697-3.614 1.695h-2.022v4.79h-3.496zm3.496-12.597v4.579h1.048q.975-.002 1.667-.651.69-.651.689-1.604c0-.633-.224-1.201-.667-1.652q-.666-.673-1.667-.672zm9.11 12.597V17.514h-1.522l1.188-3.23h6.373l.43-.72h3.189l-1.452 3.95h-4.711V30.11z"/><path fill="#2b2c86" d="M57.843 37.923v5.087h2.683c.982 0 1.665-.601 1.665-1.501 0-.66-.393-1.091-.99-1.234.443-.17.755-.58.755-1.074 0-.757-.57-1.278-1.71-1.278zm.9.721h1.285c.525 0 1.005.063 1.005.7 0 .512-.349.7-1.036.7h-1.258v-1.4zm0 2.045h1.367c.597 0 1.154.098 1.154.802 0 .65-.516.793-1.14.793h-1.385V40.69zm8.824.388h-.923c-.095.748-.489 1.3-1.344 1.3-1.122 0-1.552-.962-1.552-1.906s.453-1.902 1.561-1.902c.679 0 1.177.365 1.303.98h.919c-.177-1.18-1.154-1.737-2.204-1.737-1.597 0-2.507 1.216-2.507 2.659 0 1.608.978 2.664 2.462 2.664 1.317 0 2.195-.82 2.294-2.058zm4.616-3.15H68.39v5.088h3.837v-.766h-2.923v-1.502h2.67v-.721h-2.67v-1.35h2.878zm-.76-1.207h-.82v.77h.82zm-1.471 0h-.828v.77h.828zm9.865 7.56v-2.036h-.593v-4.317h-3.43v.784c0 1.4-.29 2.843-.688 3.529h-.511v2.035h.896V43.01h3.43v1.266h.896zM78.3 42.244h-2.204c.326-.637.597-1.973.597-3.234v-.308h1.607zm6.272.77v-5.087h-3.44l-.104 2.95c-.045 1.291-.334 1.505-.71 1.505a1.2 1.2 0 0 1-.362-.058v.686c.131.045.348.094.556.094.756 0 1.353-.566 1.412-1.987l.095-2.423h1.63v4.316h.922zm5.059 0v-5.087h-2.399c-1.122 0-1.746.566-1.746 1.408 0 .642.208 1.216 1.14 1.492l-1.62 2.188h1.154l1.493-2.099h1.05v2.099h.928m-.924-2.78H87.32c-.593 0-.9-.284-.9-.819s.29-.757.918-.757h1.376v1.577zm8.59.843h-.924c-.095.748-.489 1.3-1.344 1.3-1.122 0-1.552-.962-1.552-1.906s.452-1.902 1.561-1.902c.679 0 1.177.365 1.303.98h.919c-.177-1.18-1.154-1.737-2.204-1.737-1.597 0-2.507 1.216-2.507 2.659 0 1.608.978 2.664 2.462 2.664 1.317 0 2.195-.82 2.294-2.058zm4.474-3.15h-4.28v.771h1.678v4.317h.924v-4.317h1.678zm.62 0v5.088h.923v-1.956h1.489c1.064 0 1.711-.615 1.711-1.577 0-1.065-.747-1.55-1.833-1.55h-2.285zm.923.744h1.204c.584 0 1.086.174 1.086.829 0 .601-.407.837-1.004.837h-1.286zm6.263-.864c-1.611 0-2.543 1.172-2.543 2.664 0 1.586 1.023 2.664 2.53 2.664s2.529-1.078 2.529-2.664-1.027-2.664-2.516-2.664m-.013.748c.977 0 1.597.744 1.597 1.907s-.62 1.92-1.584 1.92-1.611-.744-1.611-1.929.629-1.902 1.598-1.902zm3.348 4.46h1.073l2.262-3.903v3.903h.923v-5.088h-1.072l-2.263 3.903v-3.903h-.923zm9.136-5.088h-4.28v.771h1.678v4.317h.924v-4.317h1.678zm4.394 0h-3.792v5.088h3.837v-.766h-2.923v-1.502h2.67v-.721h-2.67v-1.35h2.878zm4.991 5.088v-5.088h-3.439l-.104 2.95c-.045 1.291-.335 1.505-.71 1.505-.073 0-.254-.013-.362-.058v.686c.131.045.348.094.556.094.756 0 1.353-.566 1.412-1.987l.095-2.423h1.629v4.316h.923zm5.222-1.577c0-1.003-.642-1.564-1.796-1.564h-1.407v-1.942h-.924v5.087h2.331c1.145 0 1.796-.57 1.796-1.577zm-.923.022c0 .548-.303.829-.909.829h-1.367v-1.684h1.353c.579 0 .923.32.923.855m6.236-.379h-.923c-.095.749-.489 1.301-1.344 1.301-1.122 0-1.552-.962-1.552-1.907 0-.944.452-1.902 1.561-1.902.679 0 1.176.365 1.303.98h.919c-.177-1.18-1.154-1.737-2.204-1.737-1.597 0-2.507 1.216-2.507 2.66 0 1.608.977 2.663 2.462 2.663 1.316 0 2.194-.82 2.294-2.058zm4.475-3.15h-4.281v.771h1.679v4.317h.923v-4.317h1.679zm.597 0v5.088h2.684c.982 0 1.665-.601 1.665-1.501 0-.66-.394-1.092-.991-1.234.444-.17.756-.58.756-1.074 0-.757-.57-1.278-1.711-1.278zm.901.722h1.285c.525 0 1.005.063 1.005.7 0 .512-.349.7-1.037.7h-1.258v-1.4zm0 2.045h1.367c.597 0 1.153.098 1.153.802 0 .65-.515.793-1.14.793h-1.385v-1.595zm6.715-2.766h-.982l-2.032 5.087h.955l.516-1.35h2.086l.502 1.35h.991l-2.031-5.087zm.294 3.065h-1.606l.819-2.139.783 2.139zm4.277 2.022h1.072l2.263-3.902v3.902h.923v-5.087h-1.073l-2.262 3.902v-3.902h-.923zm7.425-5.087v5.087h.923v-1.956h1.489c1.063 0 1.711-.614 1.711-1.577 0-1.064-.747-1.55-1.833-1.55h-2.285zm.923.744h1.204c.584 0 1.086.173 1.086.828 0 .602-.407.838-1.005.838h-1.285zm7.779-.744h-3.792v5.087h3.837v-.766h-2.923v-1.501h2.67v-.722h-2.67v-1.35h2.878zm6.344 0h-1.285l-1.421 3.978-1.471-3.978h-1.294v5.087h.874V39.1l1.502 3.92h.756l1.466-3.92v3.92h.882v-5.087zm3.371-.12c-1.611 0-2.543 1.171-2.543 2.663 0 1.586 1.023 2.664 2.53 2.664s2.529-1.078 2.529-2.664-1.027-2.663-2.516-2.663m-.013.748c.977 0 1.597.744 1.597 1.907 0 1.162-.62 1.92-1.584 1.92-.963 0-1.611-.744-1.611-1.93 0-1.184.629-1.902 1.598-1.902zm7.611-.628h-.923v2.022h-2.412v-2.022h-.923v5.087h.923v-2.285h2.412v2.285h.923zm4.874 0h-4.281v.77h1.679v4.317h.923v-4.317h1.679zm2.33 0 2.032 5.087h-.991l-.503-1.35h-2.086l-.516 1.35h-.954l2.031-5.087h.987m.294 3.065-.783-2.139-.819 2.139h1.607z"/></g><defs><clipPath id="a"><path fill="#fff" d="M0 0h215v54H0z"/></clipPath></defs></svg>