<svg xmlns="http://www.w3.org/2000/svg" width="36" height="23" fill="none" viewBox="0 0 36 23"><path fill="#000" fill-rule="evenodd" d="M13.303 11.069a11.04 11.04 0 0 0 4.427 8.84 11.068 11.068 0 1 1 0-17.68 11.04 11.04 0 0 0-4.427 8.84" clip-rule="evenodd"/><path fill="#000" fill-rule="evenodd" d="M24.372 22.137c-2.397 0-4.73-.782-6.642-2.229a11.04 11.04 0 0 0 0-17.68 11.064 11.064 0 1 1 6.642 19.91" clip-rule="evenodd" opacity=".3"/><path fill="#000" fill-rule="evenodd" d="M13.303 11.069a11.04 11.04 0 0 1 4.427-8.84 11.04 11.04 0 0 1 0 17.68 11.04 11.04 0 0 1-4.427-8.84" clip-rule="evenodd" opacity=".65"/></svg>