<svg width="59" height="16" viewBox="0 0 59 16" fill="none" xmlns="http://www.w3.org/2000/svg">
<path fill-rule="evenodd" clip-rule="evenodd" d="M14.6512 15.0533V6.1099H14.2563L11.4228 15.0533H8.05788H8.04815L5.22438 6.1099H4.83206V15.0533H0V6.11857e-05H4.83919C5.44221 -0.00277236 6.03102 0.188583 6.51715 0.545787C7.00328 0.902903 7.36101 1.407 7.53899 1.98354L9.52781 8.94079H9.94661L11.939 1.98354C12.1178 1.40594 12.4774 0.901221 12.9653 0.544017C13.4532 0.186813 14.0429 -0.00392349 14.6477 6.11857e-05H19.4869V15.0533H14.6477H14.6512Z" fill="black"/>
<path fill-rule="evenodd" clip-rule="evenodd" d="M33.1609 15.0532V6.18865H32.7793L29.4791 13.6152C29.2851 14.0443 28.9717 14.4082 28.5759 14.6633C28.1792 14.9184 27.7187 15.0538 27.2476 15.0532H23.0186V2.9377e-06H27.8887V8.86458H28.2881L31.6299 1.42652C31.6387 1.40792 31.6467 1.38844 31.6556 1.36984V1.36453C31.8575 0.954378 32.1709 0.609124 32.5597 0.367919C32.9475 0.126713 33.3964 -0.000705449 33.8534 2.9377e-06H38.0824V15.0532H33.1609Z" fill="black"/>
<path fill-rule="evenodd" clip-rule="evenodd" d="M52.3615 10.633H46.5598V15.0533H41.6348V7.08398H57.9994C57.5115 8.16321 56.7163 9.07508 55.714 9.70608C54.7116 10.3371 53.5454 10.6595 52.3615 10.633Z" fill="black"/>
<path opacity="0.55" fill-rule="evenodd" clip-rule="evenodd" d="M58.3095 5.3129H48.949C44.8838 5.3129 41.5039 2.85834 40.792 0H52.8C55.9089 0 58.4282 2.15439 58.4282 4.45841C58.4282 4.74735 58.3883 5.03486 58.3095 5.3129Z" fill="black"/>
</svg>
