<svg xmlns="http://www.w3.org/2000/svg" width="76" height="10" fill="none" viewBox="0 0 76 10"><path fill="#000" d="M7.174 9.702V2.78h4.153V.259H0v2.52h4.151v6.923zM15.56.26h-3.024v9.443h3.024zm2.212 0v9.443h2.778V4.484l5.187 5.218h2.572V.26h-2.775v5.178L20.471.26zM34.256 6.13l3.482 3.571h3.897l-4.86-4.92L41.448.259h-3.667l-3.526 3.55h-.804V.26h-2.925v9.443h2.925v-3.57zM47.643 0c-3.932 0-6.282 2.183-6.282 5s2.35 5 6.282 5c3.915 0 6.265-2.182 6.265-5s-2.35-5-6.265-5m0 7.698c-1.953 0-3.207-1.15-3.207-2.698 0-1.547 1.255-2.679 3.207-2.679 1.936 0 3.208 1.132 3.208 2.679 0 1.548-1.272 2.698-3.208 2.698M65 .258h-9.694v9.444h2.916V6.41h6.353V4.326h-6.353V2.66h6.778zM76 .259h-9.694v9.444h2.916V6.41h6.354V4.326h-6.354V2.66H76z"/></svg>