<svg xmlns="http://www.w3.org/2000/svg" width="48" height="16" fill="none" viewBox="0 0 48 16"><path fill="#000" fill-rule="evenodd" d="M43.947 15.333s-.346-2.113-.462-2.642h-5.006c-.138.414-.83 2.642-.83 2.642h-4.083l5.79-13.809a1.91 1.91 0 0 1 2.03-1.266h3.022l3.16 15.075zM41.94 5.62l-.277-1.289c-.185.576-.532 1.474-.508 1.45 0 0-1.246 3.337-1.545 4.211h3.23c-.16-.761-.9-4.372-.9-4.372m-8.397-1.886a6.5 6.5 0 0 0-2.906-.575c-1.547 0-2.239.644-2.262 1.288 0 .714.831 1.173 2.214 1.86 2.238 1.058 3.276 2.37 3.253 4.094-.023 3.106-2.676 5.13-6.783 5.13a11.9 11.9 0 0 1-4.339-.803l.532-3.383.53.253a7.9 7.9 0 0 0 3.645.805c1.131 0 2.33-.46 2.354-1.472 0-.667-.507-1.151-2.03-1.886-1.476-.714-3.438-1.91-3.415-4.074C24.36 2.048 27.058 0 30.911 0a9.9 9.9 0 0 1 3.506.62l-.53 3.268zm-17.163 11.6L18.825.258h3.896l-2.444 15.075zm-9.386 0L3.728 3.058c.53.267 1.033.587 1.5.954a16.3 16.3 0 0 1 3.59 4.112l.065.325.415 2.072L13.127.258h4.13L11.12 15.333z" clip-rule="evenodd"/><path fill="#000" fill-rule="evenodd" d="M5.224 4.013a9 9 0 0 0-1.5-.955l-.222-.835A15.6 15.6 0 0 0 0 .748V.28h5.99a1.57 1.57 0 0 1 1.53 1.24l1.297 6.6a16.3 16.3 0 0 0-3.593-4.108" clip-rule="evenodd" opacity=".35"/></svg>